<svg id="Layer_1" data-name="Layer 1" xmlns="http://www.w3.org/2000/svg" viewBox="0 0 246.82 86.72"><defs><style>.cls-1{fill:none;}.cls-2{fill:#43b049;}.cls-3{fill:#fff;}.cls-4{fill:#183129;}</style></defs><title>td_ameritrade_CMYK</title><rect class="cls-1" width="246.82" height="86.72"/><polygon class="cls-2" points="23.7 23.69 23.7 23.69 67.66 23.69 67.66 63.02 23.7 63.02 23.7 23.69 23.7 23.69"/><path class="cls-3" d="M29.61,32h0c5.88,0,10.24-1.28,10.24-11.78,0-8-2.92-11.13-9.05-11.13H5.36v3.27h7.47V32h5.09V12.34H29.21c3.46,0,5.1,1.78,5.1,7.92s-1.43,8.46-4.85,8.46H24.51V13.53H19.37V32H29.61Z" transform="translate(22.95 22.53)"/><path class="cls-4" d="M179.66,25.15V23h0a3.74,3.74,0,0,1-3.87,2.48c-3.85,0-5.27-3-5.27-6.5,0-3.26,1.5-6.11,5.11-6.11a4.05,4.05,0,0,1,3.62,1.83h0V7.81h5.8V25.15h-5.39Zm-1.73-8.72c-1.22,0-1.43,1.25-1.43,2.5s0.21,2.61,1.47,2.61,1.43-1.34,1.43-2.47C179.41,17.68,179.22,16.43,177.93,16.43Z" transform="translate(22.95 22.53)"/><path class="cls-4" d="M60.21,9.06h8.5l5.73,16.08H68l-1.06-3.48H61.7l-1,3.48H54.57Zm2.35,8.73h3.57l-1.75-5.27h0Z" transform="translate(22.95 22.53)"/><path class="cls-4" d="M75.37,13.13h5.48v2.07h0A4.06,4.06,0,0,1,85,12.86c1.61,0,3.29.62,3.76,2.05h0c0.39-1.38,2.42-2.05,3.85-2.05,4.24,0,4.24,2.74,4.24,5.09v7.19h-5.8V18.23c0-.69,0-1.63-1-1.63s-1,.94-1,1.63v6.91h-5.8V18.23c0-.69,0-1.63-1-1.63s-1,.94-1,1.63v6.91h-5.8v-12Z" transform="translate(22.95 22.53)"/><path class="cls-4" d="M104,20.53c0.09,1.5,1.5,1.84,3.2,1.84a8.93,8.93,0,0,0,3.94-.76v3.11a18.51,18.51,0,0,1-5.41.69c-4.86,0-7.44-2.35-7.44-6.49s2.58-6.06,7.44-6.06c4.65,0,6.29,2.9,6.29,7v0.71h-8ZM107,18c0-.92-0.14-2.37-1.45-2.37s-1.63,1.43-1.56,2.37h3Z" transform="translate(22.95 22.53)"/><path class="cls-4" d="M119,13.13v2.72h0c0.69-1.7,1.84-3,3.66-3a3.74,3.74,0,0,1,.94.11v4.81a4,4,0,0,0-1.31-.18,3.08,3.08,0,0,0-3,3.18v4.35h-5.8v-12H119Z" transform="translate(22.95 22.53)"/><path class="cls-4" d="M131.15,11.87h-5.8v-4h5.8v4Zm-5.8,1.26h5.8v12h-5.8v-12Z" transform="translate(22.95 22.53)"/><path class="cls-4" d="M134.71,13.13V10.37l5.8-1.77v4.54h2.63v3.46h-2.63V20a1.32,1.32,0,0,0,1.27,1.57,4.15,4.15,0,0,0,1.36-.21v3.46a14,14,0,0,1-4,.62c-3,0-4.45-1.5-4.45-4.67V16.59h-2.05V13.13h2.05Z" transform="translate(22.95 22.53)"/><path class="cls-4" d="M150.24,13.13v2.72h0c0.69-1.7,1.85-3,3.66-3a3.73,3.73,0,0,1,.94.11v4.81a4,4,0,0,0-1.31-.18,3.09,3.09,0,0,0-3,3.18v4.35h-5.8v-12h5.44Z" transform="translate(22.95 22.53)"/><path class="cls-4" d="M156.75,13.55a15.54,15.54,0,0,1,5-.69c3.32,0,7.35.6,7.35,5v7.3h-5.39V23.41h0a4.36,4.36,0,0,1-3.92,2c-2.23,0-4.4-1-4.4-3.52,0-3.69,3.31-4.42,6.2-4.42,0.8,0,1.73.12,2.26,0.16,0-1.54-1.61-1.73-3.06-1.73a9.36,9.36,0,0,0-4,1V13.55Zm7.07,6.31h-0.58c-1.2,0-2.58.11-2.58,1.36A1.1,1.1,0,0,0,162,22.37a1.94,1.94,0,0,0,1.79-2.14V19.86Z" transform="translate(22.95 22.53)"/><path class="cls-4" d="M192.15,20.48c0.09,1.5,1.5,1.84,3.2,1.84a9,9,0,0,0,3.94-.76v3.11a18.53,18.53,0,0,1-5.41.69c-4.86,0-7.44-2.35-7.44-6.49s2.58-6.06,7.44-6.06c4.65,0,6.29,2.9,6.29,7v0.71h-8Zm3-2.53c0-.92-0.14-2.37-1.45-2.37s-1.63,1.43-1.56,2.37h3Z" transform="translate(22.95 22.53)"/></svg>